<svg width="58" height="53" viewBox="0 0 58 53" fill="none" xmlns="http://www.w3.org/2000/svg">
<path d="M0 0H58V23.3209C58 39.2704 44.9495 52.2 29 52.2C13.0505 52.2 0 39.2704 0 23.3209V0Z" fill="url(#paint0_linear_603_476)"/>
<path d="M30.52 39.1504C30.52 38.3109 29.8394 37.6304 29 37.6304C28.1606 37.6304 27.48 38.3109 27.48 39.1504L30.52 39.1504ZM27.9252 40.9502C28.5188 41.5437 29.4812 41.5437 30.0748 40.9502L39.7477 31.2772C40.3413 30.6837 40.3413 29.7213 39.7477 29.1277C39.1541 28.5341 38.1917 28.5341 37.5982 29.1277L29 37.7259L20.4018 29.1277C19.8083 28.5341 18.8459 28.5341 18.2523 29.1277C17.6587 29.7213 17.6587 30.6837 18.2523 31.2772L27.9252 40.9502ZM27.48 39.1504L27.48 39.8754L30.52 39.8754L30.52 39.1504L27.48 39.1504Z" fill="#476F87"/>
<path d="M30.52 5.0752C30.52 4.23575 29.8394 3.55524 29 3.55524C28.1606 3.55524 27.48 4.23575 27.48 5.0752L30.52 5.0752ZM27.9252 28.625C28.5188 29.2185 29.4812 29.2185 30.0748 28.625L39.7477 18.952C40.3413 18.3585 40.3413 17.3961 39.7477 16.8025C39.1541 16.2089 38.1917 16.2089 37.5982 16.8025L29 25.4007L20.4018 16.8025C19.8083 16.2089 18.8459 16.2089 18.2523 16.8025C17.6587 17.3961 17.6587 18.3585 18.2523 18.952L27.9252 28.625ZM27.48 5.0752L27.48 27.5502L30.52 27.5502L30.52 5.0752L27.48 5.0752Z" fill="#476F87"/>
<defs>
<linearGradient id="paint0_linear_603_476" x1="29" y1="-10" x2="29" y2="52.2" gradientUnits="userSpaceOnUse">
<stop stop-color="#FDFEFF" stop-opacity="0.07"/>
<stop offset="1" stop-color="#ECB22E"/>
</linearGradient>
</defs>
</svg>
