<svg width="47" height="63" viewBox="0 0 47 63" fill="none" xmlns="http://www.w3.org/2000/svg">
<path d="M23.4812 0.240234C10.5123 0.240234 0.144531 10.6081 0.144531 23.5769C0.144531 28.062 1.48153 31.526 3.80305 35.0387L21.026 61.1709C21.5487 61.961 22.4481 62.4714 23.4812 62.4714C24.5144 62.4714 25.426 61.9488 25.9364 61.1709L43.1594 35.0387C45.4809 31.526 46.8179 28.062 46.8179 23.5769C46.8179 10.6081 36.4501 0.240234 23.4812 0.240234Z" fill="url(#paint0_linear_431_853)"/>
<path fill-rule="evenodd" clip-rule="evenodd" d="M18.3258 36.8756C17.0713 37.0802 15.3762 35.6578 15.024 34.426C14.4943 32.5764 16.87 32.1159 18.498 31.7891C18.5855 33.3818 18.9506 35.7488 18.3258 36.8756ZM14.3677 23.3177L17.8686 22.2813C17.9595 22.8428 18.3051 26.3896 18.1764 27.0347C18.1694 27.0704 18.1443 27.1305 18.1374 27.1588C17.8406 28.3472 7.537 28.6062 12.4713 36.4613C13.4127 37.9601 14.1311 38.6195 15.3082 39.4603C16.9712 40.648 21.2168 43.1202 22.9322 39.8596C24.0934 37.6521 23.6285 33.3172 23.6355 30.4296C28.937 28.4047 34.1091 29.4784 32.988 22.6969L23.4577 25.6307L23.1362 20.8645C24.9524 19.6571 34.0276 18.3267 35.7662 15.5102C36.4765 14.3589 36.6153 12.5045 36.144 10.8993C33.0307 11.7544 19.766 16.2065 16.6832 17.7814C14.7625 18.7624 14.188 20.7997 14.3679 23.3189L14.3677 23.3177Z" fill="white"/>
<defs>
<linearGradient id="paint0_linear_431_853" x1="0.144532" y1="10.0208" x2="32.7943" y2="59.6427" gradientUnits="userSpaceOnUse">
<stop offset="0.0216666" stop-color="#78AAC5"/>
<stop offset="0.318199" stop-color="#F3808E"/>
<stop offset="0.693895" stop-color="#FCB236"/>
<stop offset="1" stop-color="#F7EEA6"/>
</linearGradient>
</defs>
</svg>
