<svg width="394" height="14" viewBox="0 0 394 14" fill="none" xmlns="http://www.w3.org/2000/svg">
<path d="M331.499 4.36716C329.748 4.53509 324.568 5.50037 320.154 6.50661C315.74 7.51285 311.085 8.40813 309.779 8.46906C308.074 8.54138 306.202 8.14707 301.842 6.8025C293.283 4.18732 290.963 3.70369 285.41 3.4068C279.569 3.09455 274.571 3.4811 265.223 4.94274C256.94 6.23248 246.643 7.21841 243.387 7.04437C241.568 6.94711 239.069 6.22504 235.215 4.646C227.411 1.48279 223.33 0.578098 215 0.132765C206.177 -0.306293 200.607 0.245865 184.511 3.27548C169.718 6.04784 162.688 6.97961 158.476 6.75438C156.369 6.64177 152.816 5.86339 147.449 4.3669C138.718 1.90595 135.199 1.26017 128.305 0.891615C121.125 0.507707 114.987 1.42181 103.867 4.52127C92.1909 7.75448 86.5287 8.49785 75.7937 8.15274C69.9876 7.97309 67.4641 7.70741 61.1159 6.61613C50.4181 4.76925 41.3226 4.28297 32.9985 5.04747C17.3692 6.50019 1.38324 10.3202 0.137589 12.9016C-0.139222 13.4752 0.0130696 13.9737 0.49178 13.9993C0.97049 14.0249 3.4459 13.3726 6.10931 12.5343C11.4669 10.794 20.7003 9.16275 31.664 8.01633C41.6892 6.98318 45.8061 7.20329 55.8714 9.34325C63.249 10.9472 63.6166 10.9996 75.3928 11.6292C93.0094 12.571 96.9705 12.0963 114.56 6.98899C118.557 5.82969 123.193 4.76995 124.928 4.63389C129.529 4.25874 135.663 4.979 140.487 6.38103C154.991 10.7197 155.55 10.7823 168.279 9.4361C173.451 8.89533 181.703 7.66932 186.676 6.72566C199.99 4.16846 203.488 3.63628 208.138 3.36185C217.55 2.78624 222.252 3.62605 229.695 7.12957C232.396 8.45086 235.734 9.67539 236.932 9.83754C243.182 10.7274 254.711 10.0362 269.737 7.79931C280.311 6.23976 284.995 6.09792 289.972 7.18128C292.02 7.61769 295.676 8.79384 298.164 9.74411C305.757 12.7326 311.498 12.8434 322.821 10.3432C331.603 8.4263 335.48 7.71827 337.203 7.81041C337.969 7.85136 340.247 8.62693 342.367 9.52485C348.15 11.9916 351.013 12.5697 358.654 12.8147C364.157 13.0109 366.77 12.889 375.266 11.9703C386.245 10.792 394.142 9.28545 393.998 8.36243C393.847 7.04676 391.695 7.02975 376.633 8.12052C357.894 9.50504 356.029 9.50339 351.665 7.96249C341.847 4.49546 337.961 3.79733 331.499 4.36716Z" fill="url(#paint0_linear_431_1387)"/>
<defs>
<linearGradient id="paint0_linear_431_1387" x1="4.84388e-06" y1="2.20031" x2="0.280409" y2="18.1916" gradientUnits="userSpaceOnUse">
<stop offset="0.0216666" stop-color="#78AAC5"/>
<stop offset="0.318199" stop-color="#F3808E"/>
<stop offset="0.693895" stop-color="#FCB236"/>
<stop offset="1" stop-color="#F7EEA6"/>
</linearGradient>
</defs>
</svg>
