<svg width="245" height="65" viewBox="0 0 245 65" fill="none" xmlns="http://www.w3.org/2000/svg">
<path d="M67.0349 39.1797V18.3028H69.7811V36.6577H78.9445V39.1797H67.0349ZM88.6727 39.516C87.2155 39.516 85.9171 39.1703 84.7776 38.4791C83.638 37.7879 82.7412 36.8445 82.0874 35.6488C81.4335 34.4345 81.1066 33.0801 81.1066 31.5856C81.1066 30.0723 81.4242 28.7273 82.0594 27.5503C82.7132 26.3734 83.5913 25.4486 84.6935 24.7761C85.8144 24.0848 87.0661 23.7392 88.4485 23.7392C89.5694 23.7392 90.5596 23.9447 91.4189 24.3557C92.297 24.748 93.0349 25.2898 93.6327 25.981C94.2492 26.6536 94.7162 27.4289 95.0338 28.3069C95.3701 29.1663 95.5382 30.063 95.5382 30.9971C95.5382 31.2026 95.5196 31.4361 95.4822 31.6976C95.4635 31.9405 95.4355 32.174 95.3981 32.3982H83.0121V30.1564H93.8849L92.6519 31.1652C92.82 30.1938 92.7266 29.3251 92.3717 28.5591C92.0167 27.7932 91.4936 27.186 90.8024 26.7376C90.1112 26.2893 89.3266 26.0651 88.4485 26.0651C87.5705 26.0651 86.7672 26.2893 86.0386 26.7376C85.31 27.186 84.7402 27.8305 84.3292 28.6712C83.9369 29.4932 83.7781 30.474 83.8528 31.6136C83.7781 32.7158 83.9462 33.6873 84.3572 34.5279C84.7869 35.3499 85.3847 35.9944 86.1507 36.4615C86.9353 36.9099 87.7853 37.134 88.7007 37.134C89.7095 37.134 90.5596 36.9005 91.2508 36.4335C91.942 35.9664 92.5025 35.3686 92.9321 34.64L95.1179 35.7609C94.819 36.4522 94.352 37.0873 93.7168 37.6665C93.1003 38.2269 92.3623 38.6753 91.503 39.0116C90.6623 39.3478 89.7189 39.516 88.6727 39.516ZM103.172 39.516C102.182 39.516 101.304 39.3385 100.538 38.9835C99.7908 38.6099 99.2023 38.1055 98.7727 37.4703C98.343 36.8164 98.1281 36.0692 98.1281 35.2285C98.1281 34.4252 98.2963 33.7059 98.6326 33.0708C98.9875 32.4169 99.5293 31.8658 100.258 31.4174C101.005 30.9691 101.939 30.6515 103.06 30.4647L108.665 29.5399V31.7257L103.649 32.5663C102.677 32.7345 101.967 33.0427 101.519 33.4911C101.089 33.9395 100.874 34.4906 100.874 35.1444C100.874 35.7609 101.117 36.2747 101.603 36.6857C102.107 37.0967 102.733 37.3022 103.48 37.3022C104.433 37.3022 105.255 37.106 105.946 36.7137C106.656 36.3027 107.207 35.7516 107.6 35.0604C108.011 34.3691 108.216 33.6032 108.216 32.7625V28.9234C108.216 28.1014 107.908 27.4382 107.292 26.9338C106.694 26.4107 105.9 26.1492 104.91 26.1492C104.05 26.1492 103.284 26.3734 102.612 26.8217C101.958 27.2514 101.472 27.8305 101.155 28.5591L98.8848 27.3822C99.165 26.6909 99.6133 26.0744 100.23 25.5327C100.846 24.9722 101.566 24.5332 102.388 24.2156C103.21 23.898 104.069 23.7392 104.966 23.7392C106.124 23.7392 107.142 23.9634 108.02 24.4118C108.898 24.8414 109.58 25.4486 110.066 26.2332C110.57 26.9992 110.822 27.8959 110.822 28.9234V39.1797H108.272V36.3214L108.749 36.4895C108.431 37.0873 108.001 37.6104 107.46 38.0588C106.918 38.5071 106.283 38.8621 105.554 39.1236C104.826 39.3852 104.032 39.516 103.172 39.516ZM121.729 39.516C120.309 39.516 119.029 39.1703 117.89 38.4791C116.769 37.7879 115.881 36.8445 115.227 35.6488C114.574 34.4532 114.247 33.1175 114.247 31.6416C114.247 30.1284 114.574 28.7833 115.227 27.6063C115.881 26.4107 116.769 25.4673 117.89 24.7761C119.029 24.0848 120.309 23.7392 121.729 23.7392C122.98 23.7392 124.092 24.0101 125.063 24.5519C126.035 25.075 126.801 25.7849 127.361 26.6816L126.941 27.3261V17.9666H129.575V39.1797H127.025V35.9571L127.361 36.4054C126.838 37.3956 126.072 38.1615 125.063 38.7033C124.073 39.2451 122.962 39.516 121.729 39.516ZM121.953 36.9939C122.906 36.9939 123.756 36.7604 124.503 36.2934C125.25 35.8263 125.839 35.1911 126.268 34.3878C126.717 33.5658 126.941 32.6504 126.941 31.6416C126.941 30.6141 126.717 29.6987 126.268 28.8954C125.839 28.0734 125.25 27.4289 124.503 26.9618C123.756 26.4948 122.906 26.2613 121.953 26.2613C121.019 26.2613 120.169 26.5041 119.403 26.9898C118.656 27.4569 118.067 28.0921 117.637 28.8954C117.208 29.68 116.993 30.5954 116.993 31.6416C116.993 32.6504 117.208 33.5658 117.637 34.3878C118.067 35.1911 118.656 35.8263 119.403 36.2934C120.15 36.7604 121 36.9939 121.953 36.9939ZM139.017 39.516C137.504 39.516 136.187 39.1423 135.066 38.3951C133.945 37.6478 133.151 36.639 132.684 35.3686L134.758 34.3598C135.187 35.2565 135.776 35.9664 136.523 36.4895C137.27 37.0126 138.102 37.2741 139.017 37.2741C139.839 37.2741 140.521 37.078 141.063 36.6857C141.605 36.2934 141.875 35.7796 141.875 35.1444C141.875 34.6961 141.745 34.3411 141.483 34.0796C141.24 33.7993 140.941 33.5845 140.586 33.4351C140.231 33.2669 139.904 33.1455 139.606 33.0708L137.336 32.4262C135.972 32.0339 134.972 31.4735 134.337 30.7449C133.721 30.0163 133.413 29.1663 133.413 28.1948C133.413 27.2981 133.637 26.5228 134.085 25.8689C134.552 25.1964 135.178 24.6733 135.963 24.2997C136.766 23.926 137.663 23.7392 138.653 23.7392C139.979 23.7392 141.165 24.0755 142.212 24.748C143.277 25.4206 144.033 26.364 144.481 27.5783L142.352 28.5591C142.016 27.7745 141.511 27.158 140.839 26.7096C140.166 26.2426 139.409 26.0091 138.569 26.0091C137.803 26.0091 137.196 26.2052 136.747 26.5975C136.299 26.9712 136.075 27.4476 136.075 28.0267C136.075 28.4564 136.187 28.8113 136.411 29.0915C136.635 29.3531 136.906 29.5586 137.224 29.708C137.541 29.8388 137.849 29.9509 138.148 30.0443L140.614 30.7729C141.847 31.1279 142.8 31.679 143.473 32.4262C144.164 33.1735 144.51 34.0702 144.51 35.1164C144.51 35.9571 144.276 36.7137 143.809 37.3862C143.342 38.0588 142.697 38.5819 141.875 38.9555C141.053 39.3291 140.101 39.516 139.017 39.516ZM148.229 39.1797V18.3028H150.751L158.57 29.4278H157.281L165.043 18.3028H167.565V39.1797H164.791V21.7776L165.771 22.0859L158.009 33.0147H157.785L150.107 22.0859L150.976 21.7776V39.1797H148.229ZM176.321 39.516C175.331 39.516 174.453 39.3385 173.687 38.9835C172.94 38.6099 172.351 38.1055 171.922 37.4703C171.492 36.8164 171.277 36.0692 171.277 35.2285C171.277 34.4252 171.445 33.7059 171.781 33.0708C172.136 32.4169 172.678 31.8658 173.407 31.4174C174.154 30.9691 175.088 30.6515 176.209 30.4647L181.814 29.5399V31.7257L176.797 32.5663C175.826 32.7345 175.116 33.0427 174.668 33.4911C174.238 33.9395 174.023 34.4906 174.023 35.1444C174.023 35.7609 174.266 36.2747 174.752 36.6857C175.256 37.0967 175.882 37.3022 176.629 37.3022C177.582 37.3022 178.404 37.106 179.095 36.7137C179.805 36.3027 180.356 35.7516 180.749 35.0604C181.16 34.3691 181.365 33.6032 181.365 32.7625V28.9234C181.365 28.1014 181.057 27.4382 180.44 26.9338C179.843 26.4107 179.049 26.1492 178.059 26.1492C177.199 26.1492 176.433 26.3734 175.761 26.8217C175.107 27.2514 174.621 27.8305 174.303 28.5591L172.034 27.3822C172.314 26.6909 172.762 26.0744 173.379 25.5327C173.995 24.9722 174.714 24.5332 175.536 24.2156C176.358 23.898 177.218 23.7392 178.115 23.7392C179.273 23.7392 180.291 23.9634 181.169 24.4118C182.047 24.8414 182.729 25.4486 183.215 26.2332C183.719 26.9992 183.971 27.8959 183.971 28.9234V39.1797H181.421V36.3214L181.898 36.4895C181.58 37.0873 181.15 37.6104 180.609 38.0588C180.067 38.5071 179.432 38.8621 178.703 39.1236C177.974 39.3852 177.18 39.516 176.321 39.516ZM193.875 39.3478C192.399 39.3478 191.26 38.9275 190.457 38.0868C189.672 37.2461 189.28 36.0598 189.28 34.5279V26.5695H186.533V24.0755H187.094C187.766 24.0755 188.299 23.87 188.691 23.459C189.083 23.048 189.28 22.5062 189.28 21.8337V20.6007H191.886V24.0755H195.276V26.5695H191.886V34.4439C191.886 34.9483 191.96 35.3873 192.11 35.7609C192.278 36.1346 192.549 36.4335 192.923 36.6577C193.296 36.8632 193.791 36.9659 194.408 36.9659C194.539 36.9659 194.697 36.9566 194.884 36.9379C195.09 36.9192 195.276 36.9005 195.445 36.8818V39.1797C195.202 39.2357 194.931 39.2731 194.632 39.2918C194.333 39.3291 194.081 39.3478 193.875 39.3478ZM205.388 39.516C203.931 39.516 202.632 39.1703 201.493 38.4791C200.353 37.7879 199.457 36.8445 198.803 35.6488C198.149 34.4345 197.822 33.0801 197.822 31.5856C197.822 30.0723 198.139 28.7273 198.775 27.5503C199.429 26.3734 200.307 25.4486 201.409 24.7761C202.53 24.0848 203.781 23.7392 205.164 23.7392C206.285 23.7392 207.275 23.9447 208.134 24.3557C209.012 24.748 209.75 25.2898 210.348 25.981C210.965 26.6536 211.432 27.4289 211.749 28.3069C212.085 29.1663 212.254 30.063 212.254 30.9971C212.254 31.2026 212.235 31.4361 212.197 31.6976C212.179 31.9405 212.151 32.174 212.113 32.3982H199.727V30.1564H210.6L209.367 31.1652C209.535 30.1938 209.442 29.3251 209.087 28.5591C208.732 27.7932 208.209 27.186 207.518 26.7376C206.826 26.2893 206.042 26.0651 205.164 26.0651C204.286 26.0651 203.482 26.2893 202.754 26.7376C202.025 27.186 201.455 27.8305 201.044 28.6712C200.652 29.4932 200.493 30.474 200.568 31.6136C200.493 32.7158 200.662 33.6873 201.073 34.5279C201.502 35.3499 202.1 35.9944 202.866 36.4615C203.651 36.9099 204.501 37.134 205.416 37.134C206.425 37.134 207.275 36.9005 207.966 36.4335C208.657 35.9664 209.218 35.3686 209.647 34.64L211.833 35.7609C211.534 36.4522 211.067 37.0873 210.432 37.6665C209.816 38.2269 209.078 38.6753 208.218 39.0116C207.378 39.3478 206.434 39.516 205.388 39.516Z" fill="black"/>
<path d="M218.786 39.1797L226.268 18.3028H229.519L237.001 39.1797H234.058L232.349 34.2757H223.438L221.728 39.1797H218.786ZM224.306 31.7537H231.48L227.501 20.2924H228.286L224.306 31.7537ZM239.323 39.1797V24.0755H241.929V39.1797H239.323ZM239.323 21.6656V18.3028H241.929V21.6656H239.323Z" fill="url(#paint0_linear_667_119)"/>
<path fill-rule="evenodd" clip-rule="evenodd" d="M44.5767 26.8938C44.0762 26.8972 43.6755 27.3064 43.6505 27.8063C43.3004 34.8016 38.5768 39.9953 33.7654 42.1321C23.7652 46.5743 12.6896 40.4218 10.506 30.6937C8.26931 20.7293 14.8401 10.8073 25.9258 10.0096C26.4149 9.97437 26.8079 9.57613 26.8095 9.08574L26.8359 0.943411C26.8375 0.458044 26.4578 0.0551199 25.9724 0.0556761C19.7494 0.0628071 12.2067 3.24326 8.29671 7.51404C7.58581 8.29063 7.11189 8.45487 6.45026 9.33391C1.40516 16.0378 -1.1999 22.7784 0.537851 31.9731C1.3903 36.4833 3.80219 41.5651 6.65282 44.4416L12.0639 50.0318C13.9203 51.8983 24.019 62.2392 26.4388 64.302C26.692 64.5178 27.0283 64.5157 27.2814 64.2998C29.927 62.0426 41.6278 49.9829 43.0603 48.5599C48.066 43.5876 53.1013 38.3656 53.5975 27.7675C53.6214 27.2569 53.2071 26.8362 52.6959 26.8396L44.5767 26.8938Z" fill="url(#paint1_linear_667_119)"/>
<path d="M20.3328 20.876H17.6097C17.4091 20.876 17.2466 21.0385 17.2466 21.2391V31.7685C17.2466 31.969 17.4091 32.1316 17.6097 32.1316H20.3328C20.5333 32.1316 20.6959 31.969 20.6959 31.7685V21.2391C20.6959 21.0385 20.5333 20.876 20.3328 20.876Z" fill="black"/>
<path d="M30.0297 26.2677L35.1676 21.1298C35.3094 20.988 35.5393 20.988 35.6811 21.1298L37.0914 22.5402C37.2332 22.682 37.2332 22.9119 37.0914 23.0537L33.8774 26.2677C33.7356 26.4095 33.7356 26.6394 33.8774 26.7811L37.0914 29.9952C37.2332 30.137 37.2332 30.3669 37.0914 30.5086L35.6811 31.919C35.5393 32.0608 35.3094 32.0608 35.1676 31.919L30.0297 26.7811C29.8879 26.6394 29.8879 26.4095 30.0297 26.2677Z" fill="black"/>
<path fill-rule="evenodd" clip-rule="evenodd" d="M33.3054 9.01003C33.3034 9.50936 33.7051 9.91655 34.2044 9.92135L42.7389 10.0034C43.2354 10.0082 43.636 10.411 43.6379 10.9075L43.6708 19.3483C43.6727 19.8476 44.0775 20.2515 44.5768 20.2525L52.7296 20.2678C53.2311 20.2688 53.6383 19.8629 53.639 19.3614L53.6639 0.993368C53.6646 0.493116 53.2604 0.0866126 52.7602 0.0844374L34.2496 0.00394821C33.7482 0.00176788 33.34 0.406571 33.338 0.907995L33.3054 9.01003Z" fill="url(#paint2_linear_667_119)"/>
<defs>
<linearGradient id="paint0_linear_667_119" x1="215.164" y1="27.6902" x2="214.657" y2="37.433" gradientUnits="userSpaceOnUse">
<stop offset="0.0216666" stop-color="#78AAC5"/>
<stop offset="0.318199" stop-color="#F3808E"/>
<stop offset="0.693895" stop-color="#FCB236"/>
<stop offset="1" stop-color="#F7EEA6"/>
</linearGradient>
<linearGradient id="paint1_linear_667_119" x1="6.59321e-07" y1="10.204" x2="32.3985" y2="64.732" gradientUnits="userSpaceOnUse">
<stop offset="0.0216666" stop-color="#78AAC5"/>
<stop offset="0.318199" stop-color="#F3808E"/>
<stop offset="0.693895" stop-color="#FCB236"/>
<stop offset="1" stop-color="#F7EEA6"/>
</linearGradient>
<linearGradient id="paint2_linear_667_119" x1="33.3018" y1="3.18566" x2="42.4666" y2="21.8436" gradientUnits="userSpaceOnUse">
<stop offset="0.0216666" stop-color="#78AAC5"/>
<stop offset="0.318199" stop-color="#F3808E"/>
<stop offset="0.693895" stop-color="#FCB236"/>
<stop offset="1" stop-color="#F7EEA6"/>
</linearGradient>
</defs>
</svg>
