<svg width="208" height="56" viewBox="0 0 208 56" fill="none" xmlns="http://www.w3.org/2000/svg">
<path d="M57.4937 34.5645V16.8798H59.82V32.4281H67.5822V34.5645H57.4937ZM75.8229 34.8493C74.5885 34.8493 73.4887 34.5565 72.5234 33.971C71.558 33.3855 70.7984 32.5863 70.2445 31.5735C69.6907 30.5449 69.4137 29.3975 69.4137 28.1315C69.4137 26.8497 69.6827 25.7103 70.2208 24.7133C70.7747 23.7163 71.5185 22.933 72.4522 22.3633C73.4017 21.7777 74.4619 21.485 75.633 21.485C76.5825 21.485 77.4213 21.659 78.1492 22.0072C78.893 22.3395 79.5181 22.7984 80.0245 23.384C80.5467 23.9537 80.9423 24.6104 81.2114 25.3542C81.4962 26.0822 81.6387 26.8418 81.6387 27.633C81.6387 27.8071 81.6228 28.0049 81.5912 28.2265C81.5754 28.4322 81.5516 28.63 81.52 28.8199H71.0279V26.9209H80.2381L79.1937 27.7755C79.3361 26.9526 79.257 26.2167 78.9563 25.5679C78.6556 24.919 78.2125 24.4047 77.627 24.0249C77.0414 23.6451 76.3768 23.4552 75.633 23.4552C74.8892 23.4552 74.2087 23.6451 73.5916 24.0249C72.9744 24.4047 72.4917 24.9507 72.1436 25.6628C71.8112 26.3591 71.6767 27.1899 71.74 28.1553C71.6767 29.0889 71.8191 29.9119 72.1673 30.624C72.5313 31.3203 73.0377 31.8663 73.6865 32.2619C74.3512 32.6417 75.0712 32.8316 75.8466 32.8316C76.7012 32.8316 77.4213 32.6338 78.0068 32.2382C78.5923 31.8425 79.0671 31.3361 79.431 30.7189L81.2826 31.6684C81.0294 32.254 80.6338 32.792 80.0957 33.2826C79.5735 33.7574 78.9484 34.1372 78.2204 34.422C77.5083 34.7069 76.7091 34.8493 75.8229 34.8493ZM88.1053 34.8493C87.2666 34.8493 86.5228 34.699 85.874 34.3983C85.241 34.0818 84.7425 33.6545 84.3785 33.1165C84.0145 32.5626 83.8325 31.9296 83.8325 31.2174C83.8325 30.537 83.975 29.9277 84.2598 29.3896C84.5605 28.8357 85.0194 28.3689 85.6366 27.9891C86.2696 27.6093 87.0609 27.3403 88.0104 27.182L92.7579 26.3987V28.2502L88.5089 28.9623C87.686 29.1048 87.0846 29.3659 86.7048 29.7457C86.3408 30.1255 86.1588 30.5923 86.1588 31.1462C86.1588 31.6684 86.3646 32.1036 86.776 32.4518C87.2033 32.7999 87.7334 32.974 88.3664 32.974C89.1735 32.974 89.8698 32.8079 90.4554 32.4755C91.0567 32.1274 91.5236 31.6605 91.8559 31.075C92.204 30.4895 92.3781 29.8406 92.3781 29.1285V25.8764C92.3781 25.1801 92.117 24.6183 91.5948 24.1911C91.0884 23.748 90.4158 23.5264 89.5771 23.5264C88.8491 23.5264 88.2003 23.7163 87.6306 24.0961C87.0767 24.4601 86.6652 24.9507 86.3962 25.5679L84.4735 24.5709C84.7108 23.9853 85.0906 23.4631 85.6129 23.0042C86.1351 22.5294 86.7444 22.1575 87.4407 21.8885C88.137 21.6195 88.8649 21.485 89.6245 21.485C90.6057 21.485 91.4682 21.6749 92.212 22.0547C92.9557 22.4186 93.5334 22.933 93.9448 23.5976C94.3721 24.2465 94.5857 25.0061 94.5857 25.8764V34.5645H92.4256V32.1432L92.8291 32.2856C92.5601 32.792 92.1961 33.2351 91.7372 33.6149C91.2783 33.9947 90.7402 34.2954 90.123 34.517C89.5059 34.7385 88.8333 34.8493 88.1053 34.8493ZM103.824 34.8493C102.622 34.8493 101.538 34.5565 100.572 33.971C99.6228 33.3855 98.8711 32.5863 98.3172 31.5735C97.7633 30.5607 97.4864 29.4292 97.4864 28.179C97.4864 26.8972 97.7633 25.7578 98.3172 24.7608C98.8711 23.748 99.6228 22.9488 100.572 22.3633C101.538 21.7777 102.622 21.485 103.824 21.485C104.885 21.485 105.826 21.7144 106.649 22.1734C107.472 22.6165 108.121 23.2178 108.596 23.9774L108.24 24.5234V16.595H110.471V34.5645H108.311V31.8346L108.596 32.2144C108.153 33.0532 107.504 33.702 106.649 34.1609C105.81 34.6198 104.869 34.8493 103.824 34.8493ZM104.014 32.7129C104.821 32.7129 105.541 32.5151 106.174 32.1195C106.807 31.7238 107.306 31.1858 107.67 30.5053C108.05 29.809 108.24 29.0336 108.24 28.179C108.24 27.3086 108.05 26.5332 107.67 25.8527C107.306 25.1564 106.807 24.6104 106.174 24.2148C105.541 23.8192 104.821 23.6214 104.014 23.6214C103.223 23.6214 102.503 23.8271 101.854 24.2385C101.221 24.6342 100.723 25.1722 100.359 25.8527C99.9947 26.5174 99.8127 27.2928 99.8127 28.179C99.8127 29.0336 99.9947 29.809 100.359 30.5053C100.723 31.1858 101.221 31.7238 101.854 32.1195C102.487 32.5151 103.207 32.7129 104.014 32.7129ZM118.469 34.8493C117.187 34.8493 116.072 34.5328 115.122 33.8998C114.173 33.2668 113.5 32.4122 113.105 31.3361L114.861 30.4816C115.225 31.2412 115.724 31.8425 116.357 32.2856C116.99 32.7287 117.694 32.9503 118.469 32.9503C119.166 32.9503 119.743 32.7841 120.202 32.4518C120.661 32.1195 120.89 31.6843 120.89 31.1462C120.89 30.7664 120.78 30.4657 120.558 30.2442C120.352 30.0068 120.099 29.8248 119.799 29.6982C119.498 29.5558 119.221 29.4529 118.968 29.3896L117.045 28.8437C115.89 28.5113 115.043 28.0366 114.505 27.4194C113.983 26.8022 113.722 26.0822 113.722 25.2593C113.722 24.4997 113.912 23.8429 114.291 23.289C114.687 22.7193 115.217 22.2762 115.882 21.9597C116.562 21.6432 117.322 21.485 118.161 21.485C119.284 21.485 120.289 21.7698 121.175 22.3395C122.077 22.9092 122.718 23.7084 123.098 24.737L121.294 25.5679C121.009 24.9032 120.582 24.381 120.012 24.0012C119.442 23.6055 118.802 23.4077 118.089 23.4077C117.441 23.4077 116.926 23.5739 116.546 23.9062C116.167 24.2227 115.977 24.6263 115.977 25.1168C115.977 25.4808 116.072 25.7815 116.262 26.0189C116.452 26.2404 116.681 26.4145 116.95 26.5411C117.219 26.6519 117.48 26.7468 117.733 26.826L119.822 27.4431C120.867 27.7438 121.674 28.2107 122.244 28.8437C122.829 29.4767 123.122 30.2363 123.122 31.1225C123.122 31.8346 122.924 32.4755 122.528 33.0452C122.133 33.6149 121.587 34.058 120.89 34.3746C120.194 34.6911 119.387 34.8493 118.469 34.8493ZM126.273 34.5645V16.8798H128.409L135.032 26.3037H133.94L140.515 16.8798H142.652V34.5645H140.302V19.8233L141.133 20.0844L134.557 29.3422H134.367L127.863 20.0844L128.599 19.8233V34.5645H126.273ZM150.069 34.8493C149.23 34.8493 148.487 34.699 147.838 34.3983C147.205 34.0818 146.706 33.6545 146.342 33.1165C145.978 32.5626 145.796 31.9296 145.796 31.2174C145.796 30.537 145.939 29.9277 146.224 29.3896C146.524 28.8357 146.983 28.3689 147.6 27.9891C148.233 27.6093 149.025 27.3403 149.974 27.182L154.722 26.3987V28.2502L150.473 28.9623C149.65 29.1048 149.048 29.3659 148.669 29.7457C148.305 30.1255 148.123 30.5923 148.123 31.1462C148.123 31.6684 148.328 32.1036 148.74 32.4518C149.167 32.7999 149.697 32.974 150.33 32.974C151.137 32.974 151.834 32.8079 152.419 32.4755C153.021 32.1274 153.487 31.6605 153.82 31.075C154.168 30.4895 154.342 29.8406 154.342 29.1285V25.8764C154.342 25.1801 154.081 24.6183 153.559 24.1911C153.052 23.748 152.38 23.5264 151.541 23.5264C150.813 23.5264 150.164 23.7163 149.594 24.0961C149.041 24.4601 148.629 24.9507 148.36 25.5679L146.437 24.5709C146.675 23.9853 147.054 23.4631 147.577 23.0042C148.099 22.5294 148.708 22.1575 149.405 21.8885C150.101 21.6195 150.829 21.485 151.588 21.485C152.57 21.485 153.432 21.6749 154.176 22.0547C154.92 22.4186 155.497 22.933 155.909 23.5976C156.336 24.2465 156.55 25.0061 156.55 25.8764V34.5645H154.389V32.1432L154.793 32.2856C154.524 32.792 154.16 33.2351 153.701 33.6149C153.242 33.9947 152.704 34.2954 152.087 34.517C151.47 34.7385 150.797 34.8493 150.069 34.8493ZM164.939 34.7069C163.689 34.7069 162.724 34.3508 162.043 33.6387C161.379 32.9265 161.046 31.9217 161.046 30.624V23.8825H158.72V21.7698H159.195C159.764 21.7698 160.215 21.5957 160.548 21.2476C160.88 20.8994 161.046 20.4405 161.046 19.8708V18.8263H163.254V21.7698H166.126V23.8825H163.254V30.5528C163.254 30.9801 163.317 31.3519 163.444 31.6684C163.586 31.985 163.816 32.2382 164.132 32.4281C164.449 32.6021 164.868 32.6892 165.39 32.6892C165.501 32.6892 165.635 32.6813 165.794 32.6654C165.968 32.6496 166.126 32.6338 166.268 32.618V34.5645C166.063 34.6119 165.833 34.6436 165.58 34.6594C165.327 34.6911 165.113 34.7069 164.939 34.7069ZM174.691 34.8493C173.457 34.8493 172.357 34.5565 171.392 33.971C170.427 33.3855 169.667 32.5863 169.113 31.5735C168.559 30.5449 168.282 29.3975 168.282 28.1315C168.282 26.8497 168.551 25.7103 169.089 24.7133C169.643 23.7163 170.387 22.933 171.321 22.3633C172.27 21.7777 173.331 21.485 174.502 21.485C175.451 21.485 176.29 21.659 177.018 22.0072C177.762 22.3395 178.387 22.7984 178.893 23.384C179.415 23.9537 179.811 24.6104 180.08 25.3542C180.365 26.0822 180.507 26.8418 180.507 27.633C180.507 27.8071 180.491 28.0049 180.46 28.2265C180.444 28.4322 180.42 28.63 180.389 28.8199H169.896V26.9209H179.107L178.062 27.7755C178.205 26.9526 178.126 26.2167 177.825 25.5679C177.524 24.919 177.081 24.4047 176.496 24.0249C175.91 23.6451 175.245 23.4552 174.502 23.4552C173.758 23.4552 173.077 23.6451 172.46 24.0249C171.843 24.4047 171.36 24.9507 171.012 25.6628C170.68 26.3591 170.545 27.1899 170.609 28.1553C170.545 29.0889 170.688 29.9119 171.036 30.624C171.4 31.3203 171.906 31.8663 172.555 32.2619C173.22 32.6417 173.94 32.8316 174.715 32.8316C175.57 32.8316 176.29 32.6338 176.875 32.2382C177.461 31.8425 177.936 31.3361 178.3 30.7189L180.151 31.6684C179.898 32.254 179.502 32.792 178.964 33.2826C178.442 33.7574 177.817 34.1372 177.089 34.422C176.377 34.7069 175.578 34.8493 174.691 34.8493Z" fill="white"/>
<path d="M186.041 34.5645L192.379 16.8798H195.132L201.47 34.5645H198.978L197.53 30.4103H189.981L188.533 34.5645H186.041ZM190.717 28.274H196.794L193.423 18.5652H194.088L190.717 28.274ZM203.438 34.5645V21.7698H205.645V34.5645H203.438ZM203.438 19.7284V16.8798H205.645V19.7284H203.438Z" fill="url(#paint0_linear_706_2)"/>
<path fill-rule="evenodd" clip-rule="evenodd" d="M38.4695 23.7217C38.0456 23.7245 37.7062 24.0712 37.685 24.4946C37.3884 30.4203 33.3871 34.8199 29.3114 36.6299C20.8403 40.3928 11.4582 35.1811 9.60857 26.9405C7.71385 18.4998 13.28 10.0949 22.6705 9.41918C23.0848 9.38936 23.4177 9.05201 23.4191 8.63661L23.4414 1.73931C23.4428 1.32816 23.1212 0.986844 22.71 0.987315C17.4386 0.993355 11.0492 3.68749 7.73706 7.30523C7.13487 7.96308 6.73341 8.1022 6.17295 8.84683C1.89928 14.5256 -0.307439 20.2355 1.16459 28.0243C1.8867 31.8448 3.92979 36.1497 6.34453 38.5863L10.9282 43.3217C12.5007 44.9028 21.0553 53.6624 23.1051 55.4099C23.3195 55.5927 23.6045 55.5909 23.8188 55.408C26.0599 53.496 35.9716 43.2803 37.185 42.0749C41.4253 37.8629 45.6907 33.4394 46.111 24.4618C46.1313 24.0293 45.7803 23.6729 45.3473 23.6758L38.4695 23.7217Z" fill="url(#paint1_linear_706_2)"/>
<path d="M17.9327 18.624H15.6259C15.4561 18.624 15.3184 18.7617 15.3184 18.9316V27.851C15.3184 28.0208 15.4561 28.1585 15.6259 28.1585H17.9327C18.1025 28.1585 18.2402 28.0208 18.2402 27.851V18.9316C18.2402 18.7617 18.1025 18.624 17.9327 18.624Z" fill="white"/>
<path d="M26.1467 23.1918L30.4989 18.8396C30.6191 18.7194 30.8138 18.7194 30.9339 18.8396L32.1286 20.0343C32.2487 20.1544 32.2487 20.3491 32.1286 20.4692L29.4061 23.1918C29.286 23.3119 29.286 23.5067 29.4061 23.6268L32.1286 26.3493C32.2487 26.4695 32.2487 26.6642 32.1286 26.7843L30.9339 27.979C30.8138 28.0991 30.6191 28.0991 30.4989 27.979L26.1467 23.6268C26.0266 23.5067 26.0266 23.3119 26.1467 23.1918Z" fill="white"/>
<path fill-rule="evenodd" clip-rule="evenodd" d="M28.9215 8.57275C28.9198 8.99573 29.2601 9.34066 29.683 9.34472L36.9126 9.41422C37.3332 9.41826 37.6725 9.75949 37.6741 10.1801L37.702 17.3302C37.7036 17.7532 38.0465 18.0954 38.4694 18.0961L45.3756 18.1092C45.8004 18.11 46.1454 17.7661 46.146 17.3413L46.1671 1.7819C46.1677 1.35814 45.8253 1.0138 45.4015 1.01196L29.7214 0.943774C29.2966 0.941927 28.9509 1.28483 28.9491 1.70958L28.9215 8.57275Z" fill="url(#paint2_linear_706_2)"/>
<defs>
<linearGradient id="paint0_linear_706_2" x1="182.574" y1="24.5735" x2="182.133" y2="32.9238" gradientUnits="userSpaceOnUse">
<stop offset="0.0216666" stop-color="#78AAC5"/>
<stop offset="0.318199" stop-color="#F3808E"/>
<stop offset="0.693895" stop-color="#FCB236"/>
<stop offset="1" stop-color="#F7EEA6"/>
</linearGradient>
<linearGradient id="paint1_linear_706_2" x1="0.708985" y1="9.58384" x2="28.1535" y2="55.7741" gradientUnits="userSpaceOnUse">
<stop offset="0.0216666" stop-color="#78AAC5"/>
<stop offset="0.318199" stop-color="#F3808E"/>
<stop offset="0.693895" stop-color="#FCB236"/>
<stop offset="1" stop-color="#F7EEA6"/>
</linearGradient>
<linearGradient id="paint2_linear_706_2" x1="28.9185" y1="3.63898" x2="36.6819" y2="19.444" gradientUnits="userSpaceOnUse">
<stop offset="0.0216666" stop-color="#78AAC5"/>
<stop offset="0.318199" stop-color="#F3808E"/>
<stop offset="0.693895" stop-color="#FCB236"/>
<stop offset="1" stop-color="#F7EEA6"/>
</linearGradient>
</defs>
</svg>
